<svg width="258" height="40" viewBox="0 0 258 40" fill="none" xmlns="http://www.w3.org/2000/svg">
    <g clip-path="url(#clip0_185_1601)">
        <path d="M21.2875 2.5475C20.8591 2.51587 20.4296 2.50003 20 2.5V0C20.4913 0.000239569 20.9825 0.0185854 21.4725 0.055L21.2875 2.5475ZM26.2975 3.6725C25.4961 3.36324 24.6731 3.11339 23.835 2.925L24.3825 0.485C25.3425 0.7 26.2808 0.985 27.1975 1.34L26.2975 3.6725ZM29.7225 5.4475C29.3651 5.2091 28.999 4.98395 28.625 4.7725L29.8575 2.5975C30.7124 3.08165 31.5304 3.62813 32.305 4.2325L30.7675 6.205C30.4286 5.94059 30.08 5.68875 29.7225 5.45V5.4475ZM34.3075 9.9225C33.8129 9.22 33.2673 8.55486 32.675 7.9325L34.485 6.2075C35.1617 6.9225 35.7842 7.68083 36.3525 8.4825L34.3075 9.9225ZM36.1675 13.3025C36.0036 12.9061 35.8251 12.5158 35.6325 12.1325L37.865 11.0075C38.3063 11.8853 38.6823 12.7944 38.99 13.7275L36.615 14.51C36.4807 14.1021 36.3314 13.6994 36.1675 13.3025ZM37.4925 19.57C37.4722 18.7109 37.3886 17.8544 37.2425 17.0075L39.705 16.5825C39.8717 17.5492 39.9683 18.5242 39.995 19.5075L37.4925 19.57ZM37.165 23.415C37.2483 22.9917 37.3158 22.5667 37.3675 22.14L39.85 22.4475C39.7295 23.4228 39.5373 24.3879 39.275 25.335L36.865 24.6675C36.98 24.2558 37.08 23.8383 37.165 23.415ZM34.785 29.3625C35.245 28.6358 35.65 27.8792 36 27.0925L38.285 28.105C37.885 29.005 37.4225 29.87 36.8975 30.7L34.785 29.3625ZM32.375 32.375C32.68 32.07 32.9717 31.755 33.25 31.43L35.145 33.0625C34.8242 33.4347 34.4898 33.7949 34.1425 34.1425L32.375 32.375Z" fill="#006D5B" />
        <path d="M19.9984 2.5C17.1206 2.50021 14.2873 3.21012 11.7494 4.56685C9.21144 5.92358 7.04728 7.88525 5.44855 10.2781C3.84983 12.671 2.8659 15.4212 2.5839 18.2852C2.3019 21.1491 2.73054 24.0384 3.83185 26.6971C4.93317 29.3559 6.67316 31.702 8.89773 33.5276C11.1223 35.3533 13.7628 36.6022 16.5852 37.1637C19.4077 37.7252 22.3251 37.5819 25.0791 36.7466C27.833 35.9114 30.3384 34.4098 32.3734 32.375L34.1409 34.1425C31.8153 36.4694 28.9515 38.1868 25.8035 39.1425C22.6555 40.0981 19.3203 40.2626 16.0936 39.6212C12.8668 38.9798 9.84805 37.5525 7.30478 35.4656C4.76151 33.3787 2.77225 30.6967 1.51325 27.6572C0.254244 24.6178 -0.235624 21.3147 0.0870453 18.0407C0.409715 14.7666 1.53496 11.6227 3.36308 8.88754C5.1912 6.15234 7.66575 3.91028 10.5675 2.36001C13.4692 0.809738 16.7085 -0.00087183 19.9984 7.03646e-07V2.5Z" fill="#006D5B" />
        <path d="M18.75 7.5C19.0815 7.5 19.3995 7.6317 19.6339 7.86612C19.8683 8.10054 20 8.41848 20 8.75V21.775L28.12 26.415C28.3995 26.5836 28.6019 26.8548 28.6841 27.1707C28.7662 27.4866 28.7216 27.8221 28.5596 28.1055C28.3977 28.3889 28.1313 28.5977 27.8175 28.6873C27.5036 28.7769 27.1671 28.7402 26.88 28.585L18.13 23.585C17.9387 23.4757 17.7796 23.3178 17.669 23.1273C17.5584 22.9367 17.5001 22.7203 17.5 22.5V8.75C17.5 8.41848 17.6317 8.10054 17.8661 7.86612C18.1005 7.6317 18.4185 7.5 18.75 7.5Z" fill="#006D5B" />
    </g>
    <rect x="54" width="106" height="40" rx="4" fill="#006D5B" />
    <path d="M72.88 7.84C73.0133 9.09333 73.08 9.93333 73.08 10.36C73.08 10.7867 73.0667 11.2267 73.04 11.68C73.04 12.1333 72.9467 12.6 72.76 13.08C72.5733 13.5333 72.32 13.9733 72 14.4C71.3867 15.2267 70.28 15.64 68.68 15.64C67.5867 15.64 66.6933 15.3867 66 14.88C65.3333 14.3467 64.6933 13.5867 64.08 12.6C63.52 14.5467 63.24 16.8267 63.24 19.44C63.24 22.64 64.0267 24.9867 65.6 26.48C66.4 27.2533 67.4267 27.64 68.68 27.64C69.9333 27.64 71.36 27.32 72.96 26.68C73.1467 27.4533 73.16 28.2533 73 29.08C72.84 29.88 72.5867 30.56 72.24 31.12C71.8933 31.68 71.4533 32.16 70.92 32.56C69.64 33.52 67.7867 34 65.36 34C61.6267 34 58.8533 32.7467 57.04 30.24C56.3733 29.3067 55.8267 28.08 55.4 26.56C54.9733 25.0133 54.76 23.2533 54.76 21.28C54.76 17.84 55.4267 15.0267 56.76 12.84C58.12 10.6533 59.7733 9.08 61.72 8.12C61.9867 7.53333 62.4267 6.97333 63.04 6.44C63.68 5.90667 64.5333 5.64 65.6 5.64C66.6933 5.64 67.9333 6.01333 69.32 6.76C70.7067 7.48 71.8933 7.84 72.88 7.84ZM81.2438 29.28C81.2438 30.5867 81.4038 31.56 81.7238 32.2C81.5638 32.6267 81.1104 33.04 80.3638 33.44C79.6438 33.8133 78.8304 34 77.9238 34C77.0438 34 76.3504 33.7333 75.8438 33.2C75.3638 32.64 75.1238 31.8933 75.1238 30.96V14.08C75.1238 11.8667 74.9104 10.0267 74.4838 8.56L74.2438 7.8C74.3504 7.66667 74.4971 7.49333 74.6838 7.28C74.8971 7.06666 75.3371 6.78666 76.0038 6.44C76.6704 6.06667 77.3638 5.88 78.0838 5.88C80.1904 5.88 81.2438 7.54667 81.2438 10.88V15.56C81.5904 14.7867 82.1638 14.1333 82.9638 13.6C83.7638 13.0667 84.8304 12.8 86.1638 12.8C87.5238 12.8 88.6838 13.3333 89.6438 14.4C90.6038 15.44 91.0838 16.88 91.0838 18.72V29.52L91.9638 31.56C91.8571 31.7467 91.7104 31.9733 91.5238 32.24C91.3371 32.5067 90.9238 32.8667 90.2838 33.32C89.6438 33.7733 88.9638 34 88.2438 34C86.0571 34 84.9638 32.4267 84.9638 29.28V21.56C84.9638 20.0933 84.6971 19.1067 84.1638 18.6C83.6304 18.0933 82.6571 17.84 81.2438 17.84V29.28ZM97.3491 34C95.1624 34 94.0691 32.4267 94.0691 29.28V17.28L93.1891 14.52C93.2957 14.3867 93.4424 14.2133 93.6291 14C93.8424 13.7867 94.2824 13.5067 94.9491 13.16C95.6157 12.8133 96.3091 12.64 97.0291 12.64C98.7091 12.64 99.7224 13.7067 100.069 15.84C101.376 13.8133 102.922 12.8 104.709 12.8C106.522 12.8 107.429 13.6533 107.429 15.36C107.429 16.8533 107.109 18.08 106.469 19.04C105.882 19.8933 105.269 20.5733 104.629 21.08C103.376 19.96 101.896 19.24 100.189 18.92V29.52L101.069 31.56C100.962 31.7467 100.816 31.9733 100.629 32.24C100.442 32.5067 100.029 32.8667 99.3891 33.32C98.7491 33.7733 98.0691 34 97.3491 34ZM123.024 22.4C123.024 26.16 122.197 29.04 120.544 31.04C118.89 33.0133 116.824 34 114.344 34C112.61 34 111.05 33.3867 109.664 32.16C108.917 31.52 108.317 30.56 107.864 29.28C107.41 27.9733 107.184 26.4267 107.184 24.64C107.184 21.9467 107.69 19.8933 108.704 18.48C109.717 17.04 110.81 16.1733 111.984 15.88C112.41 14.5733 113.304 13.6533 114.664 13.12C115.277 12.9067 115.957 12.8 116.704 12.8C120.917 12.8 123.024 16 123.024 22.4ZM112.904 23.12C112.904 27.1733 113.624 29.2 115.064 29.2C116.344 29.2 116.984 27.2933 116.984 23.48C116.984 21.6133 116.677 20.3067 116.064 19.56C115.477 18.7867 114.65 18.4 113.584 18.4C113.13 19.2533 112.904 20.8267 112.904 23.12ZM131.283 29.28C131.283 30.5867 131.443 31.56 131.763 32.2C131.603 32.6267 131.149 33.04 130.403 33.44C129.683 33.8133 128.869 34 127.963 34C127.083 34 126.389 33.7333 125.883 33.2C125.403 32.64 125.163 31.8933 125.163 30.96V20.8C125.163 18.5867 124.949 16.7467 124.523 15.28L124.283 14.52C124.389 14.3867 124.536 14.2133 124.723 14C124.936 13.7867 125.376 13.5067 126.043 13.16C126.709 12.8133 127.403 12.64 128.123 12.64C129.803 12.64 130.816 13.7067 131.163 15.84C131.456 15.0133 132.003 14.3067 132.803 13.72C133.629 13.1067 134.736 12.8 136.123 12.8C137.536 12.8 138.723 13.3333 139.683 14.4C140.643 15.44 141.123 16.88 141.123 18.72V29.52L142.003 31.56C141.896 31.7467 141.749 31.9733 141.563 32.24C141.376 32.5067 140.963 32.8667 140.323 33.32C139.683 33.7733 139.003 34 138.283 34C136.096 34 135.003 32.4267 135.003 29.28V21.56C135.003 20.0933 134.736 19.1067 134.203 18.6C133.669 18.0933 132.696 17.84 131.283 17.84V29.28ZM159.039 22.4C159.039 26.16 158.213 29.04 156.559 31.04C154.906 33.0133 152.839 34 150.359 34C148.626 34 147.066 33.3867 145.679 32.16C144.933 31.52 144.333 30.56 143.879 29.28C143.426 27.9733 143.199 26.4267 143.199 24.64C143.199 21.9467 143.706 19.8933 144.719 18.48C145.733 17.04 146.826 16.1733 147.999 15.88C148.426 14.5733 149.319 13.6533 150.679 13.12C151.293 12.9067 151.973 12.8 152.719 12.8C156.933 12.8 159.039 16 159.039 22.4ZM148.919 23.12C148.919 27.1733 149.639 29.2 151.079 29.2C152.359 29.2 152.999 27.2933 152.999 23.48C152.999 21.6133 152.693 20.3067 152.079 19.56C151.493 18.7867 150.666 18.4 149.599 18.4C149.146 19.2533 148.919 20.8267 148.919 23.12Z" fill="white" />
    <path d="M180.2 6.44C181.587 5.69333 183 5.32 184.44 5.32C185.88 5.32 186.893 5.69333 187.48 6.44C188.067 7.16 188.36 8.6 188.36 10.76C188.36 11.7733 188.133 15.4 187.68 21.64C187.253 27.88 187.04 31.5733 187.04 32.72C185.893 33.5467 184.48 33.96 182.8 33.96C181.12 33.96 180.267 33.2667 180.24 31.88C180.293 30.3067 180.347 28.4533 180.4 26.32H174.68C174.653 27.68 174.64 29.92 174.64 33.04C173.733 33.6533 172.347 33.96 170.48 33.96C169.653 33.96 168.987 33.7467 168.48 33.32C167.973 32.8933 167.693 32.3067 167.64 31.56L166.36 7.4C168.307 6.22667 169.973 5.64 171.36 5.64C172.773 5.64 173.747 6.02667 174.28 6.8C174.84 7.57333 175.12 9.05333 175.12 11.24C175.12 11.8 175.067 13.4667 174.96 16.24C174.853 19.0133 174.787 20.92 174.76 21.96C175.453 21.6933 176.067 21.5467 176.6 21.52C177.133 21.4933 178.427 21.4533 180.48 21.4C180.48 14.9733 180.413 10.4933 180.28 7.96L180.2 6.44ZM197.721 21.96C197.721 20.0667 196.668 19.12 194.561 19.12C193.361 19.12 192.108 19.5067 190.801 20.28C190.375 19.8533 190.161 19.3333 190.161 18.72C190.161 18.08 190.335 17.4267 190.681 16.76C191.055 16.0933 191.535 15.4667 192.121 14.88C192.735 14.2667 193.508 13.7733 194.441 13.4C195.375 13 196.361 12.8 197.401 12.8C199.481 12.8 201.081 13.4533 202.201 14.76C203.321 16.0667 203.881 17.9333 203.881 20.36V29.52L204.761 31.56C204.655 31.7467 204.508 31.9733 204.321 32.24C204.135 32.5067 203.721 32.8667 203.081 33.32C202.441 33.7733 201.775 34 201.081 34C199.348 34 198.295 33.04 197.921 31.12C197.041 33.04 195.815 34 194.241 34C192.695 34 191.508 33.52 190.681 32.56C189.881 31.5733 189.481 30.2933 189.481 28.72C189.481 24.64 192.228 22.48 197.721 22.24V21.96ZM194.481 27.24C194.481 28.28 194.841 28.9467 195.561 29.24C195.721 29.32 195.895 29.36 196.081 29.36C196.615 29.36 197.161 29.0533 197.721 28.44V24.04C195.561 24.5467 194.481 25.6133 194.481 27.24ZM214.117 15.52C214.731 13.7067 215.944 12.8 217.757 12.8C218.957 12.8 219.877 13.16 220.517 13.88C221.184 14.5733 221.517 15.5867 221.517 16.92V24.24C221.517 25.84 220.891 27.44 219.637 29.04C218.384 30.6133 217.237 31.5467 216.197 31.84C214.997 33.28 213.717 34 212.357 34C210.544 34 209.091 33.4 207.997 32.2C206.931 31 206.397 29.52 206.397 27.76V21C206.397 18.7867 206.184 16.9333 205.757 15.44L205.517 14.72C205.624 14.5867 205.771 14.4133 205.957 14.2C206.171 13.9867 206.611 13.7067 207.277 13.36C207.944 12.9867 208.637 12.8 209.357 12.8C211.464 12.8 212.517 14.4667 212.517 17.8V25.12C212.517 27.5467 213.611 28.9333 215.797 29.28V19.96C215.797 18.84 215.651 17.92 215.357 17.2C215.091 16.4533 214.824 15.9867 214.557 15.8L214.117 15.52ZM237.148 28.28C237.441 28.5733 237.588 28.96 237.588 29.44C237.588 29.92 237.454 30.4133 237.188 30.92C236.948 31.4 236.574 31.88 236.068 32.36C235.588 32.8133 234.894 33.2 233.988 33.52C233.081 33.84 232.081 34 230.988 34C229.921 34 228.961 33.8533 228.108 33.56C227.254 33.24 226.441 32.7467 225.668 32.08C223.988 30.5867 223.148 28.1467 223.148 24.76C223.148 21.3733 223.721 18.8667 224.868 17.24C226.014 15.5867 227.321 14.68 228.788 14.52C229.854 13.3733 231.134 12.8 232.628 12.8C234.148 12.8 235.374 13.3467 236.308 14.44C237.268 15.5333 237.748 17.0267 237.748 18.92C237.748 21.1333 236.934 22.88 235.308 24.16C233.974 25.2267 232.374 26.04 230.508 26.6C231.441 27.8267 232.988 28.44 235.148 28.44C235.761 28.44 236.428 28.3867 237.148 28.28ZM232.188 20.88C232.188 19.2533 231.188 18.36 229.188 18.2V21.8C229.188 23 229.294 23.96 229.508 24.68C231.294 23.6933 232.188 22.4267 232.188 20.88ZM245.798 29.28C245.798 30.5867 245.958 31.56 246.278 32.2C246.118 32.6267 245.665 33.04 244.918 33.44C244.198 33.8133 243.385 34 242.478 34C241.598 34 240.905 33.7333 240.398 33.2C239.918 32.64 239.678 31.8933 239.678 30.96V20.8C239.678 18.5867 239.465 16.7467 239.038 15.28L238.798 14.52C238.905 14.3867 239.052 14.2133 239.238 14C239.452 13.7867 239.892 13.5067 240.558 13.16C241.225 12.8133 241.918 12.64 242.638 12.64C244.318 12.64 245.332 13.7067 245.678 15.84C245.972 15.0133 246.518 14.3067 247.318 13.72C248.145 13.1067 249.252 12.8 250.638 12.8C252.052 12.8 253.238 13.3333 254.198 14.4C255.158 15.44 255.638 16.88 255.638 18.72V29.52L256.518 31.56C256.412 31.7467 256.265 31.9733 256.078 32.24C255.892 32.5067 255.478 32.8667 254.838 33.32C254.198 33.7733 253.518 34 252.798 34C250.612 34 249.518 32.4267 249.518 29.28V21.56C249.518 20.0933 249.252 19.1067 248.718 18.6C248.185 18.0933 247.212 17.84 245.798 17.84V29.28Z" fill="#006D5B" />
    <defs>
        <clipPath id="clip0_185_1601">
            <rect width="40" height="40" fill="white"/>
        </clipPath>
    </defs>
</svg>
